<svg enable-background="new 0 0 24 24" viewBox="0 0 24 24" xmlns="http://www.w3.org/2000/svg"><path d="m5.4 22.8c-.9 0-1.7-.4-2.3-1-.7-.7-1.3-1.5-1.8-2.4-.4-.8-.8-1.6-1-2.4-.3-.9-.2-1.9.3-2.6.4-.7 1.1-1.2 1.8-1.4 1.1-.3 2.1-.5 3.1-.8l1.8-.5c.2-.5.5-1 .9-1.5l-1.4-4.9c-.2-.8-.1-1.6.3-2.3s1.2-1.3 2-1.5c.9-.2 1.9-.4 3-.3.9 0 1.8.1 2.6.3.9.2 1.7.8 2.1 1.5s.5 1.5.3 2.3l-1.4 4.9c.4.4.7.9.9 1.5l4.9 1.3c.8.2 1.5.7 1.9 1.4.4.8.5 1.6.3 2.5-.3 1-.7 1.9-1.2 2.7s-1 1.5-1.6 2.1c-.6.7-1.5 1.1-2.4 1.1 0 0 0 0-.1 0-.8 0-1.6-.3-2.1-.9l-3.6-3.7c-.5.1-1.1.1-1.6 0l-3.6 3.7c-.5.6-1.3.9-2.1.9zm1.6-9.1-1 .3c-1 .3-2.1.5-3.1.8-.3.1-.5.3-.6.5-.2.3-.2.7-.1 1.1.2.7.5 1.4.9 2 .4.7.9 1.4 1.5 2 .3.3.6.4.9.4.2 0 .5-.1.7-.3l3.1-3.1c-1.3-.8-2.1-2.1-2.3-3.7zm7.8 3.7 3 3.1c.2.2.5.3.7.3.3 0 .7-.2 1-.5.5-.5 1-1.1 1.3-1.8.4-.7.7-1.5 1-2.3.1-.3.1-.7-.1-1-.1-.2-.4-.4-.6-.5l-4.1-1c-.2 1.6-1 2.9-2.2 3.7zm-2.8-7.1c-1.7 0-3 1.3-3 3s1.3 3 3 3 3-1.3 3-3-1.3-3-3-3zm0-7.3c-.8 0-1.6.1-2.4.3-.4.1-.6.3-.8.6-.1.2-.2.5-.1.8l1.1 4.1c1.3-.6 3-.6 4.3 0l1.1-4.1c.1-.3 0-.6-.1-.8-.1-.3-.4-.5-.8-.6-.7-.2-1.4-.3-2.2-.3z"/></svg>